<?xml version="1.0" encoding="UTF-8"?>
<svg version="1.1" xmlns="http://www.w3.org/2000/svg" width="1181" height="1181">
<path d="M0 0 C389.73 0 779.46 0 1181 0 C1181 389.73 1181 779.46 1181 1181 C791.27 1181 401.54 1181 0 1181 C0 791.27 0 401.54 0 0 Z " fill="#000000" transform="translate(0,0)"/>
<path d="M0 0 C389.73 0 779.46 0 1181 0 C1181 389.73 1181 779.46 1181 1181 C791.27 1181 401.54 1181 0 1181 C0 791.27 0 401.54 0 0 Z M532.4074707 18.30810547 C527.8222952 19.09438613 523.268615 19.3367474 518.625 19.5 C510.9944391 19.83252968 503.73460471 20.96650088 496.24853516 22.54101562 C493.68536034 23.06422612 491.11583341 23.54239291 488.54296875 24.015625 C487.60364502 24.18924561 486.66432129 24.36286621 485.6965332 24.54174805 C483.8581768 24.88104148 482.01948682 25.21853407 480.18041992 25.55395508 C475.62885739 26.40842977 471.39681142 27.52818601 467 29 C464.96386536 29.29164793 462.92105047 29.53885966 460.875 29.75 C451.25951808 31.04419736 442.21881948 34.05849174 433 37 C431.31795694 37.52943631 429.63566845 38.05809359 427.953125 38.5859375 C424.87418284 39.55337211 421.79751118 40.52747435 418.72265625 41.5078125 C416.15809298 42.32535776 413.59002619 43.12353493 411.01269531 43.90014648 C403.11514989 46.28355958 395.35747713 48.93973757 387.625 51.8125 C385.85564087 52.46835083 385.85564087 52.46835083 384.05053711 53.13745117 C376.57010083 55.94538254 369.31114612 58.97878371 362.13671875 62.48828125 C359.08895257 63.95712996 356.01574802 65.24451341 352.875 66.5 C347.39222843 68.73454388 342.26768007 71.45967733 337.10546875 74.3515625 C334 76 334 76 330.90234375 77.29296875 C325.19473995 79.67931389 319.810307 82.74721496 314.375 85.6875 C313.4972995 86.16210663 313.4972995 86.16210663 312.60186768 86.64630127 C304.22615451 91.18179597 295.95308098 95.75172342 288 101 C287.11038574 101.58571777 286.22077148 102.17143555 285.30419922 102.77490234 C265.15048307 116.05400624 265.15048307 116.05400624 245.6875 130.3125 C244.21095194 131.4492375 242.73438929 132.58595606 241.2578125 133.72265625 C240.53883789 134.27711426 239.81986328 134.83157227 239.07910156 135.40283203 C237.18209988 136.86011068 235.27717698 138.30590435 233.3671875 139.74609375 C227.47853013 144.19868075 221.85504212 148.81095951 216.4296875 153.8203125 C214.02755876 155.97527687 211.54258458 157.95134731 209 159.9375 C201.04915805 166.35057166 194.04314368 173.79889271 186.89257812 181.07470703 C183.40695048 184.62058675 179.87816544 188.1203941 176.328125 191.6015625 C169.5153418 198.30705122 162.92379092 204.96196698 157.01171875 212.484375 C154.89522872 215.13101496 152.66326966 217.62591823 150.375 220.125 C146.32711886 224.57836837 142.63576533 229.208444 139 234 C138.27425781 234.93070313 137.54851562 235.86140625 136.80078125 236.8203125 C122.77473014 254.84412696 109.70851792 273.45794664 98.10888672 293.13378906 C97.00499112 294.99160015 95.88290682 296.83704102 94.75390625 298.6796875 C86.32965039 312.46035388 79.02252851 326.79147522 71.86376953 341.26074219 C70.29761571 344.41429782 68.70082007 347.55253812 67.10546875 350.69140625 C65.63911845 353.7536431 64.31890982 356.87240239 63 360 C62.4575061 361.27943481 62.4575061 361.27943481 61.90405273 362.5847168 C56.95022749 374.29239388 52.10340096 385.96502523 48 398 C47.34535863 399.8573386 46.68894559 401.71405323 46.03125 403.5703125 C45.3122631 405.60929148 44.59351431 407.64835444 43.875 409.6875 C43.53774902 410.63826416 43.20049805 411.58902832 42.85302734 412.56860352 C40.92006703 418.09415103 39.22160204 423.62912696 37.72363281 429.2878418 C37.00650329 431.97562582 36.24459609 434.64617344 35.46484375 437.31640625 C35.08682617 438.61674805 35.08682617 438.61674805 34.70117188 439.94335938 C34.19070096 441.69410488 33.67766553 443.44410461 33.16210938 445.19335938 C31.69383373 450.26249612 30.47678475 455.30807482 29.48950195 460.49194336 C28.99236753 463.03910641 28.43233565 465.56442172 27.8515625 468.09375 C22.46846166 491.68683756 19.44106498 515.35765245 17.32543945 539.43164062 C17.15542331 541.29582367 16.97977315 543.16017802 16.74525452 545.01734924 C15.71152171 553.66190157 15.83580853 562.33577954 15.83203125 571.02734375 C15.82880908 572.78357468 15.82544433 574.53980536 15.82194519 576.29603577 C15.81598053 579.9699058 15.81410236 583.64375242 15.81469727 587.31762695 C15.81479831 591.96993487 15.80119346 596.6220882 15.78392506 601.2743597 C15.77266834 604.90290482 15.77078225 608.53141429 15.77130699 612.15997505 C15.7701455 613.87195934 15.7658301 615.58394513 15.75797462 617.29591179 C15.70128314 630.93506511 16.22547959 644.60563021 19 658 C19.16260433 660.31603622 19.2966784 662.63416258 19.41015625 664.953125 C19.84505566 672.34839259 20.9715119 679.48469919 22.4375 686.75 C22.5639389 687.38619263 22.69037781 688.02238525 22.82064819 688.67785645 C28.37296192 716.55965651 34.32249708 744.34424866 43.99731445 771.11743164 C45.4845604 775.39303742 46.78037529 779.72312619 48.09375 784.0546875 C49.15828632 787.51443055 50.32781454 790.90998398 51.5625 794.3125 C52.15224609 795.94638672 52.15224609 795.94638672 52.75390625 797.61328125 C53.16511719 798.73089844 53.57632813 799.84851563 54 801 C54.33729126 801.9427478 54.33729126 801.9427478 54.68139648 802.90454102 C56.48299507 807.86030243 58.63234146 812.57315066 60.9375 817.3125 C63.17302682 821.96257631 65.28399795 826.5198573 66.875 831.4375 C68.88957292 837.3296801 71.98750021 842.53865976 75.06347656 847.92504883 C79.50017944 855.74346509 83.29151765 863.8164775 87 872 C87.66 872 88.32 872 89 872 C89.28488281 872.72960937 89.56976563 873.45921875 89.86328125 874.2109375 C99.06358361 896.78487524 115.30916136 917.68163257 130 937 C130.43006348 937.56750977 130.86012695 938.13501953 131.30322266 938.71972656 C134.17450638 942.50173054 137.07759757 946.25736025 140 950 C140.65355469 950.83789062 141.30710937 951.67578125 141.98046875 952.5390625 C150.67251125 963.54300908 159.91168216 974.09435552 169.46923828 984.3515625 C171.1528636 986.16461483 172.82428761 987.98854633 174.49609375 989.8125 C182.39578972 998.38705482 190.58396162 1006.50504607 199.20214844 1014.35498047 C200.96189314 1015.96513254 202.70593073 1017.59055133 204.4453125 1019.22265625 C211.08183132 1025.43856432 217.90035446 1031.31197989 225 1037 C226.792564 1038.47807909 228.58422006 1039.95725993 230.375 1041.4375 C245.61014375 1053.87523035 261.50414979 1065.30519942 278.12988281 1075.80664062 C280.22036556 1077.1406197 282.29442907 1078.49802559 284.3671875 1079.859375 C285.11613281 1080.34978271 285.86507813 1080.84019043 286.63671875 1081.34545898 C288.08146395 1082.29239113 289.52431793 1083.242218 290.96484375 1084.19555664 C294.91187413 1086.77319943 298.89142909 1089.02080481 303.1328125 1091.0769043 C305.85328691 1092.42184595 308.44759943 1093.96142624 311.0625 1095.5 C328.74732228 1105.73740659 347.18512626 1115.60627715 366.2890625 1122.94140625 C368.52805382 1123.81570978 370.74474181 1124.7226201 372.9609375 1125.65234375 C380.05477494 1128.62656214 387.11076819 1131.49944832 394.4453125 1133.8359375 C397.4573011 1134.82228102 400.4429044 1135.85482592 403.4296875 1136.9140625 C416.51507402 1141.60998522 416.51507402 1141.60998522 429.921875 1145.23828125 C432.37448217 1145.84520815 434.73645319 1146.52697589 437.140625 1147.29296875 C463.40459725 1155.65581832 490.82234087 1159.74995818 518 1164 C519.58723877 1164.25245483 519.58723877 1164.25245483 521.20654297 1164.51000977 C544.50488823 1167.51939186 568.09963233 1167.37597892 591.54541016 1167.37060547 C595.34150254 1167.370443 599.13711185 1167.38435935 602.93310547 1167.41162109 C634.2288666 1167.63242478 664.13427829 1165.57826385 694.8125 1159 C696.41965867 1158.66539992 698.02708352 1158.33207594 699.63476562 1158 C702.81654052 1157.3417883 705.99624851 1156.67461168 709.17504883 1156.00219727 C712.52881887 1155.29773218 715.88752904 1154.62809224 719.25268555 1153.98022461 C728.07343068 1152.27871576 736.67627895 1150.49424551 745.1875 1147.5625 C747.04632962 1146.94626912 748.90571098 1146.33170015 750.765625 1145.71875 C751.65443359 1145.42355469 752.54324219 1145.12835937 753.45898438 1144.82421875 C757.09340045 1143.64533821 760.7617015 1142.6032221 764.4375 1141.5625 C785.80101048 1135.40202733 806.91127392 1127.53814846 827 1118 C828.43994326 1117.32517738 829.88006442 1116.6507343 831.3203125 1115.9765625 C854.26828353 1105.20520929 876.59867655 1093.63039308 898.109375 1080.18115234 C899.72461725 1079.1720431 901.34606512 1078.17287841 902.96875 1077.17578125 C911.56831545 1071.82695515 919.76812213 1065.89158215 928 1060 C929.05058594 1059.25105469 930.10117187 1058.50210937 931.18359375 1057.73046875 C937.28344547 1053.34376687 943.17715307 1048.74688608 949 1044 C949.85078125 1043.31292969 950.7015625 1042.62585937 951.578125 1041.91796875 C965.72546474 1030.43876765 979.34271624 1018.40441862 992.625 1005.9375 C993.32987549 1005.2765332 994.03475098 1004.61556641 994.76098633 1003.93457031 C1001.46335946 997.61964021 1008.02367991 991.24222566 1014.02734375 984.25390625 C1015.96440025 982.04067535 1017.95040666 979.87852032 1019.95117188 977.72290039 C1025.07765394 972.19470325 1029.94120376 966.52174761 1034.66601562 960.64306641 C1036.22578262 958.72190391 1037.80705884 956.81956049 1039.390625 954.91796875 C1045.87293142 947.12875975 1052.23405633 939.34200227 1058 931 C1058.79011475 929.86183838 1058.79011475 929.86183838 1059.59619141 928.70068359 C1081.99733387 896.37321355 1101.67265801 862.82387321 1118 827 C1118.43183594 826.08605469 1118.86367187 825.17210937 1119.30859375 824.23046875 C1125.62011231 810.75899799 1130.87114547 796.7885328 1135.65380859 782.71118164 C1136.85525833 779.18753773 1138.09673656 775.77871808 1139.58984375 772.36328125 C1141.03419987 768.9184319 1141.91873111 765.63876195 1142.75 762 C1144.38525549 755.06325783 1146.42549263 748.29718799 1148.5625 741.5 C1150.92712115 733.88620293 1152.87748218 726.47659739 1154.19140625 718.609375 C1155.46291058 711.0536044 1157.15834391 703.57157079 1158.75610352 696.07958984 C1162.00707401 680.60680545 1164.47630544 665.04471957 1166.16015625 649.32421875 C1166.28970042 648.11796121 1166.28970042 648.11796121 1166.42186165 646.88733482 C1168.33001932 628.67683467 1168.57676664 610.56402621 1168.44952393 592.27026367 C1168.43336965 588.96823058 1168.44366631 585.66647448 1168.45325565 582.36443233 C1168.49798635 563.03333282 1167.73378977 544.17090819 1165 525 C1164.84562973 523.89986069 1164.69125946 522.79972137 1164.5322113 521.66624451 C1162.10150303 504.46691338 1158.95476607 487.40558091 1155.6484375 470.35620117 C1155.25839456 468.33740588 1154.87578472 466.31712405 1154.5078125 464.29418945 C1153.23100253 457.44440664 1151.27736644 450.84891523 1149.25 444.1875 C1148.52760085 441.78937704 1147.80625798 439.39093565 1147.0859375 436.9921875 C1146.73112305 435.81108398 1146.37630859 434.62998047 1146.01074219 433.41308594 C1144.83060218 429.42797549 1143.710749 425.42831193 1142.6003418 421.42333984 C1140.26276839 413.00933446 1137.61446385 404.83548707 1134.43359375 396.703125 C1133.03776248 393.09754451 1131.75991034 389.46744757 1130.5 385.8125 C1128.48335698 380.10084655 1126.08869431 374.67065295 1123.4296875 369.23046875 C1122.34410168 366.77751936 1121.50946257 364.51278633 1120.72265625 361.96875 C1118.61561635 355.48132076 1115.54953176 349.43011127 1112.5625 343.3125 C1112.25652893 342.6818161 1111.95055786 342.0511322 1111.63531494 341.40133667 C1104.77355308 327.2706006 1097.7980237 313.0375831 1089 300 C1088.08218036 298.34533924 1087.1858692 296.6785474 1086.3125 295 C1082.57892991 288.09010908 1078.34680117 281.53361294 1074 275 C1073.51611816 274.27216309 1073.03223633 273.54432617 1072.53369141 272.79443359 C1065.249353 261.88748898 1057.62805718 251.31196081 1049.54785156 240.98144531 C1048.04195317 239.05370535 1046.5471783 237.11781779 1045.0546875 235.1796875 C1039.64179194 228.18018933 1033.99145027 221.51741728 1028 215 C1026.82865335 213.6707762 1025.66175407 212.33761593 1024.5 211 C1018.71247838 204.36846481 1012.89979652 197.80510462 1006.609375 191.64453125 C1004.99549135 189.99539286 1003.53031451 188.2795278 1002.0625 186.5 C999.43974287 183.38419193 996.56354708 180.83805136 993.4609375 178.2109375 C990.21214359 175.29217979 987.18433922 172.17750078 984.125 169.0625 C979.4083643 164.28072951 974.62132822 159.87299825 969.28125 155.78125 C966.98334348 153.98699422 964.8400521 152.09037366 962.6875 150.125 C957.61958706 145.57096634 952.24109802 141.46143312 946.80517578 137.36376953 C944.95680918 135.96737031 943.11680362 134.56044909 941.27734375 133.15234375 C927.25004722 122.46462623 912.69366007 112.52560728 897.77734375 103.12109375 C895.83815069 101.89791044 893.90364849 100.66746394 891.96875 99.4375 C881.33070592 92.70128176 870.47819722 86.68763619 859.19238281 81.10766602 C854.48828864 78.7739509 849.86209437 76.32218807 845.25 73.8125 C840.00515596 70.97677092 834.71111133 68.49336533 829.171875 66.28515625 C824.6880751 64.46844422 820.27849752 62.48824652 815.86938477 60.49780273 C812.53762402 59.01801266 809.22296371 57.71359714 805.75 56.6015625 C799.03245195 54.42580936 792.61168202 51.49546806 786.14648438 48.671875 C780.12598742 46.10436698 774.25990421 44.18656206 767.88647461 42.70654297 C763.38939427 41.60576055 759.05716127 40.08174617 754.6875 38.5625 C744.39107793 35.06600093 734.15306678 31.80710184 723.390625 30.07421875 C716.80428622 29.00708972 710.32319502 27.5752496 703.8125 26.125 C666.92379517 18.14479616 630.19036166 15.45117029 592.51928711 15.60888672 C588.34807832 15.62619037 584.17743539 15.61567539 580.00624466 15.59853745 C563.98431386 15.54300363 548.2482989 15.58128368 532.4074707 18.30810547 Z " fill="#FEFEFE" transform="translate(0,0)"/>
<path d="M0 0 C4.86614052 2.36026973 9.19270784 5.30814487 12 10 C12.37358761 13.24973679 12.37358761 13.24973679 12.37181091 17.18475342 C12.37754776 18.27172166 12.37754776 18.27172166 12.3834005 19.38064885 C12.39268857 21.80962573 12.38069236 24.23803304 12.36889648 26.66699219 C12.37136434 28.40827674 12.3752026 30.14955981 12.38031006 31.89083862 C12.38865229 35.64170016 12.38783677 39.3924099 12.38012505 43.1432724 C12.36854785 49.07713348 12.38070057 55.01079909 12.39674377 60.94464111 C12.43295088 75.68634865 12.43916982 90.42805186 12.43664551 105.1697998 C12.43493372 116.62063702 12.44207868 128.07131474 12.47662407 139.52210736 C12.49340579 145.41752485 12.49163337 151.31255333 12.47580135 157.20796919 C12.46999539 160.88167 12.48076108 164.55518729 12.49604797 168.22885513 C12.49976753 169.92835783 12.49668546 171.6278916 12.48617744 173.32736588 C12.42170926 184.50152826 12.9847372 192.19182597 21.01806641 200.76416016 C21.80820129 201.6095636 22.59833618 202.45496704 23.41241455 203.32598877 C27.60581958 207.65945422 31.83865513 211.94821243 36.11967087 216.19483566 C37.75353739 217.81569834 39.38404805 219.4398752 41.01382446 221.06484985 C44.46470222 224.50443311 47.91955866 227.94000221 51.375 231.375 C55.40475538 235.38107224 59.43281901 239.38881719 63.45671463 243.40077591 C65.05832018 244.9959314 66.66291837 246.58803336 68.26766968 248.18002319 C69.24939485 249.15811602 70.23098 250.13634941 71.21240234 251.11474609 C72.06683929 251.96394623 72.92127625 252.81314636 73.80160522 253.68807983 C78.35814418 258.47991905 80.12235844 261.74486242 80.12939453 268.36279297 C80.13254669 269.218237 80.13569885 270.07368103 80.13894653 270.95504761 C80.13591019 272.33468185 80.13591019 272.33468185 80.1328125 273.7421875 C80.13376923 274.7021463 80.13472595 275.6621051 80.13571167 276.65115356 C80.13639217 278.68703273 80.13454692 280.72291407 80.13037109 282.75878906 C80.12507958 285.82882776 80.13028988 288.8987162 80.13671875 291.96875 C80.1360568 293.95572948 80.13477325 295.94270887 80.1328125 297.9296875 C80.13483673 298.82920135 80.13686096 299.72871521 80.13894653 300.65548706 C80.12087748 305.73981861 79.89697271 310.76514697 79.50708008 315.83520508 C78.97655807 322.79793652 78.81540665 329.72627275 78.75390625 336.70703125 C78.73044608 338.6496739 78.70697169 340.59231644 78.682868 342.53495121 C78.65797573 344.56985903 78.63464691 346.60478029 78.61157227 348.63970947 C78.33476283 372.6052965 77.69650312 396.50668819 76.34558105 420.43867493 C75.85226204 429.34221003 75.58267105 438.25293055 75.34179688 447.16650391 C75.29442383 448.77404541 75.29442383 448.77404541 75.24609375 450.4140625 C75.22216553 451.3313916 75.1982373 452.2487207 75.17358398 453.19384766 C75 456 75 456 74.51586914 459.17675781 C73.86007486 464.03702211 73.67633562 468.85984876 73.5 473.7578125 C73.45966644 474.80152512 73.41933289 475.84523773 73.3777771 476.920578 C73.2477162 480.32191079 73.12342775 483.72342046 73 487.125 C72.91227573 489.49243177 72.82454783 491.85986341 72.73681641 494.22729492 C72.48274456 501.15124107 72.23919151 508.07552534 72 515 C71.95135803 516.39819977 71.95135803 516.39819977 71.9017334 517.824646 C71.53520848 528.43080589 71.24320734 539.03611996 71.04614258 549.64678955 C70.99672821 552.16685686 70.93903941 554.68666352 70.88085938 557.20654297 C70.78061921 561.686954 70.71062256 566.16704963 70.65997314 570.64828491 C70.63699608 572.35759036 70.60563703 574.0668076 70.56512451 575.77578735 C70.10684186 588.76468929 70.10684186 588.76468929 76 600 C78.18479748 602.14943424 78.18479748 602.14943424 80.5625 603.4375 C81.30628906 603.88996094 82.05007813 604.34242188 82.81640625 604.80859375 C83.53699219 605.20175781 84.25757813 605.59492187 85 606 C85.9288501 606.51820313 85.9288501 606.51820313 86.87646484 607.046875 C93.80261335 610.15559928 104.5817537 609.20202068 111.5546875 606.75 C116.82886749 603.66267513 119.91891739 600.57555006 122.24780273 594.91918945 C123.91257414 588.45840669 123.44077526 581.68533049 123.3125 575.0625 C123.30098253 573.55014253 123.29120514 572.03777078 123.28320312 570.52539062 C123.23044272 564.72792326 123.13480893 559.00165286 122.51635742 553.23510742 C121.9141782 547.54312443 121.69456292 541.85911666 121.5 536.140625 C121.45939453 535.03378357 121.41878906 533.92694214 121.37695312 532.78656006 C121.24832113 529.27447362 121.12374608 525.76226174 121 522.25 C120.87600666 518.75203152 120.75100786 515.25411234 120.62304688 511.75628662 C120.5438571 509.59023416 120.46685791 507.42409993 120.39257812 505.25787354 C120.19701028 499.89337465 119.90754615 494.5507912 119.5 489.19799805 C118.98846728 482.30491704 118.7356582 475.41977094 118.55444336 468.51080513 C118.49833061 466.3779525 118.43811905 464.24524697 118.37695312 462.11253357 C118.22609303 456.82837657 118.08092253 451.54406831 117.9375 446.25970459 C117.8153734 441.76069904 117.69011489 437.26180448 117.56030273 432.76301384 C117.50128326 430.67432054 117.44686687 428.58554012 117.39257812 426.49671936 C117.3374707 424.58323952 117.3374707 424.58323952 117.28125 422.63110352 C117.25095703 421.51639175 117.22066406 420.40167999 117.18945312 419.25318909 C117.04421727 415.95796999 117.04421727 415.95796999 116.5 412.55305481 C115.97853018 408.84743313 115.80739101 405.26041662 115.71875 401.52001953 C115.70070313 400.80859299 115.68265625 400.09716644 115.6640625 399.36418152 C115.62572045 397.83321592 115.58923455 396.3022029 115.55444336 394.7711525 C115.49926676 392.35064667 115.43879814 389.93032332 115.37695312 387.50997925 C115.22456512 381.5070176 115.08046972 375.50386387 114.9375 369.50067139 C114.81611931 364.41086139 114.69095777 359.32117478 114.56030273 354.23159409 C114.50055208 351.84238815 114.446505 349.45309467 114.39257812 347.06375122 C114.35576469 345.61036438 114.31867094 344.15698461 114.28125 342.70361328 C114.25095703 341.43011017 114.22066406 340.15660706 114.18945312 338.84451294 C114.320308 336.10079056 114.320308 336.10079056 113 335 C112.83812646 332.61077736 112.73985187 330.24797908 112.68359375 327.85546875 C112.66258606 327.11050644 112.64157837 326.36554413 112.61993408 325.5980072 C112.55277882 323.12795469 112.49411251 320.65781569 112.4375 318.1875 C112.41765045 317.34564148 112.3978009 316.50378296 112.37734985 315.63641357 C112.25423834 310.31751824 112.14753617 304.99843915 112.05004883 299.67901611 C112.00098444 297.05269489 111.94701775 294.42650753 111.89257812 291.80029297 C111.81052212 287.68790441 111.75304719 283.57581307 111.71389771 279.46279907 C111.69643326 277.91613612 111.67218615 276.36953346 111.64083862 274.8230896 C111.44177296 264.53560566 111.84178915 257.38755505 118.953125 249.62109375 C120.04115735 248.54869641 121.1404671 247.48763675 122.25 246.4375 C122.82919189 245.87450195 123.40838379 245.31150391 124.00512695 244.73144531 C128.21053639 240.67104999 132.54606729 236.78539109 137 233 C143.32014057 227.53175452 149.35536259 221.79648003 155.3125 215.9375 C155.99441406 215.27693604 156.67632812 214.61637207 157.37890625 213.93579102 C167.21331028 204.16793377 171.29217144 194.76410519 171.36311865 180.89013779 C171.35879962 178.45388572 171.34009492 176.01796715 171.32128906 173.58178711 C171.31884273 171.82006465 171.31781782 170.05833973 171.31809998 168.2966156 C171.31627883 164.51690416 171.30564874 160.73735765 171.28842926 156.95768547 C171.26243587 150.97723816 171.2635918 144.99698436 171.26971436 139.01649475 C171.28328649 122.01538512 171.26558704 105.01445156 171.20947266 88.01342773 C171.17868036 78.61305771 171.17292754 69.21300639 171.19435859 59.81260687 C171.20646248 53.87088411 171.18765811 47.93032405 171.14587355 41.98874843 C171.12722682 38.28981623 171.13786787 34.59139413 171.15672493 30.89248085 C171.15962127 29.18166182 171.1505958 27.47077326 171.12856102 25.76009369 C170.95226706 11.23657571 170.95226706 11.23657571 175.40789795 6.04444885 C177.27241135 4.33750248 177.27241135 4.33750248 179 3 C180.1446875 2.01 180.1446875 2.01 181.3125 1 C185.6577022 -0.61681942 189.44239988 -0.91415067 194 0 C197.84233044 1.81666669 201.12056958 3.86031337 204 7 C205.75387121 11.98968993 206.25094336 16.36970239 206.25396729 21.63922119 C206.25864726 22.74523528 206.25864726 22.74523528 206.26342177 23.87359309 C206.2713557 26.32759555 206.26509614 28.78134756 206.25878906 31.23535156 C206.26150107 33.0017664 206.26506317 34.7681801 206.26940918 36.53459167 C206.27851319 41.32198144 206.2749964 46.10928482 206.26865101 50.89667606 C206.26357756 55.91636953 206.2682865 60.93605574 206.27142334 65.95574951 C206.2750604 74.38897016 206.27027209 82.82215577 206.26074219 91.25537109 C206.24987226 100.98637275 206.25337363 110.7172905 206.264395 120.44829011 C206.27349214 128.81711868 206.27474088 137.18592209 206.26951766 145.55475402 C206.26640947 150.54667137 206.26595658 155.53854939 206.27259064 160.53046417 C206.27839831 165.22875168 206.27430496 169.92693189 206.26280212 174.6252079 C206.26017315 176.34280279 206.26089023 178.06040681 206.26532745 179.77799797 C206.29463856 192.28397455 205.65363203 203.56861832 200.3125 215.0625 C199.95800781 215.83762939 199.60351562 216.61275879 199.23828125 217.41137695 C195.16514412 226.09134128 190.52818455 233.1608249 183.05859375 239.26171875 C180.04976683 241.80237906 177.37801852 244.64698056 174.6640625 247.49609375 C173 249 173 249 171 249 C170.70996094 249.81210937 170.70996094 249.81210937 170.4140625 250.640625 C168.35463489 254.07679704 165.45365386 256.23286162 162.375 258.75 C160.54353987 260.25826128 158.72683099 261.77499837 156.93823242 263.33398438 C155.58773693 264.49480831 154.1954398 265.607988 152.7746582 266.68164062 C149.33133785 269.55151996 147.28731265 271.62583948 146.35253906 276.09667969 C146.17382411 279.76291872 146.25326733 283.3343396 146.4375 287 C146.46521484 288.21300781 146.49292969 289.42601562 146.52148438 290.67578125 C146.6861584 296.79132233 147.05408228 302.88567242 147.47265625 308.98828125 C148.32168357 321.64341144 148.56620469 334.33316574 148.93608475 347.00947952 C149.00046542 349.20336012 149.06605581 351.3972013 149.13204956 353.59103394 C149.57734321 368.40072133 150.00286153 383.21027582 150.31640625 398.0234375 C150.33859222 399.0710878 150.3607782 400.1187381 150.38363647 401.19813538 C150.48306938 405.98443501 150.57553064 410.77075507 150.65820312 415.55737305 C150.68260719 416.84189865 150.68260719 416.84189865 150.70750427 418.15237427 C150.73693052 419.70307277 150.76323825 421.25383614 150.78529358 422.80465698 C150.85282125 426.2368669 151.04677849 429.58426918 151.48413086 432.98974609 C152.24226781 439.37652092 152.29642116 445.80282407 152.44555664 452.22635078 C152.50104042 454.61112504 152.56144098 456.99573233 152.62304688 459.38035583 C152.77496416 465.29852354 152.91872483 471.21688376 153.0625 477.13525391 C153.18463697 482.1509802 153.31002142 487.16660503 153.43969727 492.18214226 C153.49881416 494.51952035 153.55321503 496.85697694 153.60742188 499.19447327 C153.64429612 500.64080395 153.68139392 502.08712895 153.71875 503.53344727 C153.74904297 504.78537369 153.77933594 506.03730011 153.81054688 507.3271637 C154.01381631 511.26785009 154.48507464 515.0887642 155 519 C155.1260816 521.35265662 155.2199565 523.7072648 155.28125 526.0625 C155.33732422 527.99996094 155.33732422 527.99996094 155.39453125 529.9765625 C155.44799527 531.99053751 155.50011763 534.00454472 155.55224609 536.01855469 C155.69625777 544.55826575 155.69625777 544.55826575 156.49609375 553.05078125 C157.26516352 559.07814197 157.37272855 565.11792447 157.5625 571.1875 C157.60568359 572.42564453 157.64886719 573.66378906 157.69335938 574.93945312 C158.17540291 589.54613735 158.37633968 601.31477171 153 615 C152.34 615 151.68 615 151 615 C150.7215625 615.99 150.7215625 615.99 150.4375 617 C144.11205021 630.2009387 130.19712746 637.99238223 117.1484375 642.984375 C103.36659264 647.43013141 87.08424632 646.13920154 74.1171875 639.9921875 C72.28457681 639.13336256 70.39500678 638.39812754 68.5 637.6875 C56.76737825 632.03070023 46.77819201 621.48879326 41.375 609.75 C41.0759375 609.13253906 40.776875 608.51507812 40.46875 607.87890625 C36.89209412 600.20333943 35.67220403 592.73025809 35.8125 584.3125 C35.82325562 583.03101074 35.82325562 583.03101074 35.83422852 581.72363281 C35.87137915 578.48189565 35.93370212 575.24127751 36 572 C36.0143811 571.27754089 36.02876221 570.55508179 36.0435791 569.81072998 C36.16124436 563.95680721 36.29562811 558.10338199 36.4375 552.25 C36.45696686 551.41594635 36.47643372 550.5818927 36.49649048 549.7225647 C36.5544777 547.29928279 36.61816227 544.87621617 36.68359375 542.453125 C36.70032135 541.73495102 36.71704895 541.01677704 36.73428345 540.27684021 C36.83550164 536.75719348 37.05731337 533.30429252 37.48852539 529.80908203 C38.20329898 523.75706984 38.32160196 517.68883817 38.5 511.6015625 C38.5609082 509.69544693 38.5609082 509.69544693 38.62304688 507.75082397 C38.75205742 503.70897944 38.87664943 499.66701998 39 495.625 C39.16267462 490.30455486 39.3302526 484.98428789 39.5 479.6640625 C39.53544922 478.45851715 39.57089844 477.2529718 39.60742188 476.01089478 C39.80604233 469.78631061 40.16759201 463.6220806 40.77709961 457.42440796 C41.07537568 454.18016564 41.19459015 450.94369792 41.28125 447.6875 C41.31863281 446.42808594 41.35601562 445.16867187 41.39453125 443.87109375 C41.46569453 441.25913762 41.53598694 438.64715765 41.60546875 436.03515625 C41.64285156 434.78605469 41.68023437 433.53695313 41.71875 432.25 C41.74904297 431.12078125 41.77933594 429.9915625 41.81054688 428.828125 C42 426 42 426 43 423 C43.14016295 420.99847848 43.22558169 418.99295548 43.28125 416.98730469 C43.31798828 415.74881775 43.35472656 414.51033081 43.39257812 413.23431396 C43.41006104 412.57270012 43.42754395 411.91108627 43.44555664 411.22942352 C43.50052554 409.15201357 43.56106777 407.0748315 43.62304688 404.99761963 C43.75375684 400.58188458 43.8772045 396.16596116 44 391.75 C44.14245636 386.64480375 44.28792558 381.5397199 44.43969727 376.43479156 C44.49890401 374.3970954 44.55328643 372.35930843 44.60742188 370.32147217 C44.64416016 369.07037659 44.68089844 367.81928101 44.71875 366.53027344 C44.74904297 365.4356781 44.77933594 364.34108276 44.81054688 363.21331787 C45.01374924 359.76679888 45.48834499 356.41305123 46 353 C46.14063441 350.67894691 46.24429039 348.35544121 46.31640625 346.03125 C46.3375499 345.36970413 46.35869354 344.70815826 46.38047791 344.02656555 C46.59449672 337.06367586 46.74484692 330.09894258 46.88720703 323.13427734 C46.95988527 319.6469764 47.05110281 316.16080105 47.15576172 312.67431641 C47.28727685 308.2452407 47.3813215 303.81669629 47.45089722 299.38623047 C47.48340487 297.6823367 47.52809463 295.97862803 47.58547974 294.27539062 C48.26212 283.49167098 48.26212 283.49167098 43.68359375 274.140625 C42.48293951 273.06265093 41.25818961 272.01022651 40 271 C38.85416667 269.64583333 37.70833333 268.29166667 36.5625 266.9375 C34.39785053 264.46972359 32.21264335 262.25460444 29.69140625 260.15625 C23.62398595 254.9075996 18.00541598 249.19143025 12.3359375 243.52124023 C10.37779515 241.56529202 8.41177311 239.6175025 6.4453125 237.66992188 C5.17919771 236.40674074 3.9135566 235.14308461 2.6484375 233.87890625 C2.07016205 233.30781631 1.4918866 232.73672638 0.89608765 232.14833069 C-4.69653942 226.52466339 -9.32312096 220.23769552 -13.6875 213.625 C-14.52861328 212.37589844 -14.52861328 212.37589844 -15.38671875 211.1015625 C-20.63274852 201.015975 -20.45235045 190.82333683 -20.45166016 179.73388672 C-20.4622878 177.89319151 -20.47412056 176.05250292 -20.48706055 174.21182251 C-20.51769864 169.23680989 -20.52896577 164.26194107 -20.53470278 159.28684378 C-20.53906854 156.17538557 -20.54745156 153.06396417 -20.55720139 149.95251846 C-20.59088824 139.08925734 -20.60807689 128.22610443 -20.61083984 117.36279297 C-20.61387887 107.24801041 -20.65439278 97.13383717 -20.71198809 87.01923168 C-20.75976938 78.32086419 -20.7805719 69.62269809 -20.78063047 60.92420018 C-20.78116815 55.73489609 -20.79272306 50.54619062 -20.83180618 45.35702133 C-20.86767778 40.47946353 -20.86994744 35.60302188 -20.84663391 30.72539902 C-20.84377544 28.93878985 -20.85281563 27.15211476 -20.87481308 25.36563873 C-21.04991073 10.20228655 -21.04991073 10.20228655 -16.69735718 4.99954224 C-11.72252266 0.34934783 -6.70560707 -1.24059078 0 0 Z " fill="#F7F7F7" transform="translate(192,287)"/>
<path d="M0 0 C1.42954582 -0.01426531 2.85904206 -0.03512769 4.28839111 -0.06280518 C13.37357172 -0.22349365 19.2252273 0.08154604 26.42947388 5.95114136 C30.8810841 10.56261604 31.83701693 13.72186746 31.74588013 19.93942261 C31.0999193 25.56201123 28.786532 29.30446818 24.40603638 32.79098511 C20.34234973 34.95252056 17.34724295 35.49932357 12.80447388 35.63473511 C11.68170044 35.67211792 10.558927 35.70950073 9.40213013 35.74801636 C8.22779419 35.78282104 7.05345825 35.81762573 5.84353638 35.85348511 C-6.53448209 35.17361622 -6.53448209 35.17361622 -17.53146362 38.35348511 C-19.21585734 38.58559895 -20.90446289 38.78705288 -22.59396362 38.97848511 C-57.0667 44.15695537 -88.57767204 61.2540073 -113.82443237 84.95504761 C-115.53146362 86.35348511 -115.53146362 86.35348511 -117.53146362 86.35348511 C-117.53146362 87.01348511 -117.53146362 87.67348511 -117.53146362 88.35348511 C-119.1559928 90.06124988 -120.83061385 91.72171747 -122.53146362 93.35348511 C-134.89324395 105.9473125 -150.71977184 124.71525964 -154.53146362 142.35348511 C-155.19146362 142.35348511 -155.85146362 142.35348511 -156.53146362 142.35348511 C-156.80990112 144.05504761 -156.80990112 144.05504761 -157.09396362 145.79098511 C-158.16309891 150.69506219 -160.01220545 155.12916776 -161.96896362 159.72848511 C-170.38489102 179.65199294 -172.75625805 200.32843708 -172.78146362 221.79098511 C-172.78397125 222.91858749 -172.78397125 222.91858749 -172.78652954 224.06896973 C-172.78825492 237.02504916 -172.07148048 249.50105597 -168.47677612 262.02926636 C-167.67575195 264.84609104 -167.17067379 267.46220955 -166.78146362 270.35348511 C-165.59966953 277.06864067 -163.0460531 283.15451309 -160.36691284 289.38424683 C-159.54890807 291.31236679 -158.77298645 293.25298298 -158.00411987 295.20114136 C-153.47983717 306.406878 -147.29810883 316.36889355 -140.53146362 326.35348511 C-140.12637573 326.95209351 -139.72128784 327.5507019 -139.30392456 328.16744995 C-133.58419577 336.48863663 -126.77034758 343.38757583 -119.53146362 350.35348511 C-117.86479696 352.02015177 -116.19813029 353.68681844 -114.53146362 355.35348511 C-106.51331784 363.22608699 -97.98504277 369.35874026 -88.53146362 375.35348511 C-87.75673706 375.85750854 -86.9820105 376.36153198 -86.18380737 376.88082886 C-80.80235917 380.33954197 -75.17662017 383.35109815 -69.53146362 386.35348511 C-68.89853394 386.70282104 -68.26560425 387.05215698 -67.61349487 387.41207886 C-61.22190031 390.8124636 -54.35166003 393.1435855 -47.56124878 395.60983276 C-45.69511556 396.29352795 -43.83742888 397.00016284 -41.98068237 397.70895386 C-29.33138294 402.45061743 -16.48584115 405.33062329 -3.09396362 406.95895386 C-0.53146362 407.35348511 -0.53146362 407.35348511 0.46853638 408.35348511 C2.82057235 408.51364897 5.17556917 408.6310175 7.53103638 408.72848511 C16.49903214 409.23146213 22.99354027 410.878489 29.46853638 417.35348511 C32.7260206 422.13112863 33.3788743 426.71950486 32.46853638 432.35348511 C29.76674174 437.65700791 26.17356742 441.45180809 20.46853638 443.35348511 C17.20239217 443.58536147 13.92958924 443.54384761 10.65603638 443.54098511 C9.71276489 443.54017944 8.76949341 443.53937378 7.79763794 443.5385437 C-2.07145166 443.45274016 -11.54648652 442.20796858 -21.15255737 439.90817261 C-22.97063504 439.48425302 -24.79826079 439.10108416 -26.62911987 438.73629761 C-35.83300572 436.88929458 -44.6417601 434.32193527 -53.53146362 431.35348511 C-54.71869019 430.96161011 -55.90591675 430.56973511 -57.12911987 430.16598511 C-70.12412118 425.71223043 -82.30680315 419.56825663 -94.53146362 413.35348511 C-94.53146362 412.69348511 -94.53146362 412.03348511 -94.53146362 411.35348511 C-95.22240112 411.26969604 -95.91333862 411.18590698 -96.62521362 411.09957886 C-100.22131797 410.1763854 -102.97650755 408.44534879 -106.03146362 406.41598511 C-106.94460327 405.81862549 -106.94460327 405.81862549 -107.87619019 405.209198 C-114.34836859 400.91364497 -120.45545149 396.18614341 -126.53146362 391.35348511 C-127.44025269 390.63934448 -128.34904175 389.92520386 -129.28536987 389.18942261 C-143.51443145 377.93651589 -143.51443145 377.93651589 -149.01193237 371.12692261 C-151.05876581 368.7380733 -153.30229626 366.57298845 -155.53146362 364.35348511 C-157.57423647 362.227828 -159.5864981 360.07495746 -161.59396362 357.91598511 C-162.11023315 357.36877808 -162.62650269 356.82157104 -163.15841675 356.25778198 C-166.3493953 352.82290698 -169.01722982 349.3304512 -171.53146362 345.35348511 C-172.19404175 344.34672729 -172.85661987 343.33996948 -173.53927612 342.30270386 C-182.09490949 329.12197718 -190.36842415 316.28064005 -195.53146362 301.35348511 C-196.29638447 299.31946788 -197.07579144 297.29132211 -197.85543823 295.26290894 C-199.11285178 291.97125245 -200.3230616 288.66345588 -201.53146362 285.35348511 C-201.84212769 284.51688354 -202.15279175 283.68028198 -202.47286987 282.81832886 C-204.66859773 276.30012104 -205.5122373 269.53876948 -206.44235229 262.74703979 C-206.5555481 261.92494019 -206.6687439 261.10284058 -206.78536987 260.25582886 C-206.8814856 259.52871704 -206.97760132 258.80160522 -207.07662964 258.05245972 C-207.47209346 255.70578632 -207.99561539 253.45893681 -208.56149292 251.14987183 C-209.65380547 246.29868868 -209.82113692 241.66658181 -209.79708862 236.70895386 C-209.79900208 235.81791458 -209.80091553 234.92687531 -209.80288696 234.00883484 C-209.80423918 232.13567826 -209.80061061 230.26251199 -209.79220581 228.38937378 C-209.78153093 225.55883151 -209.79211447 222.72892935 -209.80490112 219.89840698 C-209.81239685 210.5051264 -209.49864742 201.57589425 -207.53146362 192.35348511 C-207.25214803 190.7362192 -206.97964774 189.11775651 -206.71505737 187.49801636 C-206.46687299 186.05391759 -206.21818811 184.60990474 -205.96896362 183.16598511 C-205.84328003 182.41768433 -205.71759644 181.66938354 -205.58810425 180.89840698 C-204.6460584 175.46807989 -204.6460584 175.46807989 -203.53146362 174.35348511 C-203.46958862 173.19848511 -203.40771362 172.04348511 -203.34396362 170.85348511 C-202.85251431 165.85036997 -201.33121038 161.37370988 -199.65646362 156.66598511 C-199.27131592 155.57930542 -199.27131592 155.57930542 -198.87838745 154.47067261 C-197.34749725 150.27407954 -195.55196906 146.34298168 -193.53146362 142.35348511 C-193.10199357 141.07260952 -192.70330904 139.78077451 -192.34396362 138.47848511 C-190.17547081 131.65822545 -186.6657666 125.381925 -183.39816284 119.0385437 C-182.42733624 117.15103801 -181.47481958 115.25486058 -180.53146362 113.35348511 C-179.87146362 113.35348511 -179.21146362 113.35348511 -178.53146362 113.35348511 C-178.43994019 112.64450073 -178.34841675 111.93551636 -178.25411987 111.20504761 C-177.39162042 107.8016714 -175.95871811 105.61771766 -173.96896362 102.72848511 C-173.24708862 101.67789917 -172.52521362 100.62731323 -171.78146362 99.54489136 C-168.41749086 94.77342305 -165.01840866 90.03595415 -161.53146362 85.35348511 C-161.002948 84.62903198 -160.47443237 83.90457886 -159.92990112 83.15817261 C-152.85049527 73.70734017 -144.61505736 64.59815766 -135.52755737 57.04098511 C-133.09040824 54.98061637 -130.79447326 52.78898608 -128.46896362 50.60348511 C-107.63917845 31.69072687 -82.94154863 18.55801262 -56.53146362 9.35348511 C-55.81152222 9.0976062 -55.09158081 8.84172729 -54.349823 8.57809448 C-47.44691053 6.12616962 -40.87183232 3.9407146 -33.53146362 3.35348511 C-33.20146362 3.02348511 -32.87146362 2.69348511 -32.53146362 2.35348511 C-21.80419982 0.38082049 -10.88066538 0.09925403 0 0 Z " fill="#F6F6F6" transform="translate(635.5314636230469,397.6465148925781)"/>
<path d="M0 0 C5.61585053 4.04304348 8.42522199 8.42423193 11.47949219 14.55932617 C12.41688038 16.35049722 13.35828625 18.13957144 14.30371094 19.92651367 C14.75665527 20.78728516 15.20959961 21.64805664 15.67626953 22.53491211 C18.41537853 27.57799252 21.64273904 32.26877752 24.97949219 36.93432617 C25.50027344 37.66651367 26.02105469 38.39870117 26.55761719 39.15307617 C29.57363513 43.28025861 32.84815914 47.10895792 36.25292969 50.91870117 C37.98440638 52.9400631 39.54663128 55.027288 41.10449219 57.18432617 C43.42661035 60.34805859 45.86796722 62.52289432 48.97949219 64.93432617 C49.87205421 65.98211637 50.74524851 67.04654409 51.60449219 68.12182617 C55.31473021 72.54055186 59.68115293 75.9907886 64.20996094 79.5402832 C66.20761222 81.11403994 68.18662468 82.7099752 70.16699219 84.30541992 C79.3922928 91.67665524 88.72494148 98.10068034 98.97949219 103.93432617 C100.52286713 104.91079802 102.06469177 105.88972732 103.60449219 106.87182617 C115.62625777 114.03330699 128.60747927 119.64378551 141.72949219 124.43432617 C142.62120117 124.76029785 143.51291016 125.08626953 144.43164062 125.42211914 C149.30531349 127.14725626 154.08638682 128.4992161 159.17578125 129.42456055 C160.97949219 129.93432617 160.97949219 129.93432617 162.97949219 131.93432617 C165.41925113 132.50565976 167.80012538 132.97045211 170.26855469 133.37182617 C171.00463959 133.4974292 171.74072449 133.62303223 172.49911499 133.75244141 C174.06713082 134.01836016 175.63581306 134.28037381 177.20507812 134.53881836 C179.54809935 134.92503065 181.88885407 135.32301636 184.22949219 135.72338867 C188.80696481 136.49935409 193.39138661 137.22431309 197.97949219 137.93432617 C199.27749756 138.14025391 200.57550293 138.34618164 201.9128418 138.55834961 C212.41139467 140.06379741 222.77803857 140.24119656 233.36889648 140.19506836 C236.27772037 140.18437862 239.18592164 140.19501113 242.09472656 140.20776367 C257.38957241 140.21990276 272.71344171 139.52286468 287.66699219 136.05932617 C288.44405518 135.88715576 289.22111816 135.71498535 290.02172852 135.53759766 C292.34443004 135.01699622 294.66229897 134.47886658 296.97949219 133.93432617 C297.68203125 133.77174316 298.38457031 133.60916016 299.10839844 133.44165039 C314.6750334 129.81214323 329.46340708 124.95791237 344.16552734 118.69067383 C346.43335416 117.74508467 348.73548343 116.9054324 351.04199219 116.05932617 C357.77511601 113.39605288 363.96028832 109.55658444 370.21435547 105.94165039 C372.27744014 104.76429391 374.37559887 103.66175012 376.47949219 102.55932617 C399.93243433 89.45588312 422.13073022 70.47639646 437.86621094 48.70385742 C441.45948245 43.99474558 444.97665634 39.58140114 451.05761719 38.59838867 C456.87247143 38.49380496 461.18161365 39.56929824 465.97949219 42.93432617 C469.34773863 46.4753032 470.75764517 49.12257555 471.35449219 53.99682617 C470.29432194 65.12861375 461.55387429 74.34698781 454.97949219 82.93432617 C454.24988281 83.90370117 453.52027344 84.87307617 452.76855469 85.87182617 C449.18177004 90.5218869 445.48404679 94.54217514 440.93652344 98.26635742 C438.85588957 99.99445016 438.85588957 99.99445016 436.60449219 102.31323242 C427.06294764 111.84057824 416.21663082 119.55709298 404.97949219 126.93432617 C404.00367188 127.5865918 403.02785156 128.23885742 402.02246094 128.91088867 C373.63111999 147.16523921 341.04076863 161.54346022 307.89355469 168.14916992 C304.67061614 168.79568754 301.46257345 169.47990084 298.25292969 170.18823242 C297.23046143 170.41373779 296.20799316 170.63924316 295.15454102 170.87158203 C293.12288049 171.32049471 291.09145626 171.77047855 289.06030273 172.22167969 C280.33190439 174.13556015 271.85330812 175.12861159 262.94433594 175.53979492 C259.74825227 175.70442445 257.03192613 175.91684819 253.97949219 176.93432617 C251.57997465 177.03064125 249.17781607 177.06507608 246.77636719 177.06713867 C246.06152161 177.0680954 245.34667603 177.06905212 244.61016846 177.07003784 C243.09037183 177.07071874 241.5705723 177.06887075 240.05078125 177.06469727 C237.77955125 177.059442 235.50852774 177.0645954 233.23730469 177.07104492 C208.34107443 177.08533413 208.34107443 177.08533413 197.60449219 174.43432617 C193.86115501 173.56241785 190.24633018 172.76913168 186.41699219 172.43432617 C179.47301904 171.79714511 172.50868868 170.1467832 165.92089844 167.88354492 C163.09552837 166.97177211 160.54411909 166.53809216 157.60449219 166.18432617 C150.36178478 165.04121082 143.85151734 162.40930321 137.078125 159.7355957 C134.33193232 158.68708426 131.55158177 157.75985348 128.76416016 156.82788086 C119.16552311 153.59630247 110.1329449 149.43904971 101.05957031 144.95678711 C99.29676047 144.09027917 97.5221284 143.2478867 95.74511719 142.41088867 C80.2002283 134.98197768 65.77108093 125.20191252 51.97949219 114.93432617 C51.34398437 114.46397949 50.70847656 113.99363281 50.05371094 113.5090332 C40.69809037 106.494739 32.31244666 98.54974669 24.04199219 90.30932617 C23.55712341 89.82813324 23.07225464 89.34694031 22.57269287 88.85116577 C11.78428393 78.10558797 2.5895694 66.45558404 -6.02050781 53.93432617 C-6.41270508 53.36842773 -6.80490234 52.8025293 -7.20898438 52.21948242 C-15.99514481 39.44229529 -25.28693801 24.88196566 -24.02050781 8.93432617 C-22.21801592 4.327958 -18.93128392 1.80754943 -15.02050781 -1.06567383 C-10.04358688 -2.73137759 -4.66916557 -2.46265197 0 0 Z " fill="#F5F5F5" transform="translate(404.0205078125,749.065673828125)"/>
<path d="M0 0 C2.73906955 0.80465426 5.49278637 1.54682808 8.24902344 2.29052734 C37.06442334 10.11194231 37.06442334 10.11194231 48.74902344 16.44287109 C51.36639926 17.78018441 51.36639926 17.78018441 54.83496094 18.93896484 C60.20606632 20.9110012 65.10791192 23.6952715 70.10058594 26.46630859 C71.03 26.97484375 71.95941406 27.48337891 72.91699219 28.00732422 C79.10856623 31.41398525 85.19290236 34.97380375 91.22558594 38.65380859 C92.20269531 39.24806641 93.17980469 39.84232422 94.18652344 40.45458984 C100.30660558 44.28706847 106.06823008 48.44205312 111.79199219 52.83349609 C114.07097844 54.65051346 114.07097844 54.65051346 116.22558594 55.65380859 C116.22558594 56.31380859 116.22558594 56.97380859 116.22558594 57.65380859 C116.78890625 57.89873047 117.35222656 58.14365234 117.93261719 58.39599609 C120.64515081 59.88396173 122.64116456 61.67883618 124.91308594 63.77880859 C128.20813393 66.80734535 131.52790416 69.7890538 134.91308594 72.71630859 C138.33879576 75.75872222 141.37842593 78.9475283 144.33496094 82.44287109 C147.42774063 86.05963412 150.67386346 89.53689484 153.89355469 93.04052734 C159.58333497 99.41651228 162.87784123 104.59058484 162.67089844 113.34130859 C161.62567487 118.76913625 157.85772573 122.41027352 153.60058594 125.65380859 C147.81778245 127.36723185 141.79074114 127.82974984 135.98730469 125.91552734 C129.64219073 122.41872106 125.58601881 116.26460152 121.22558594 110.65380859 C113.95090811 101.90219833 105.88766975 94.02137435 97.22558594 86.65380859 C96.53480957 86.02780762 96.53480957 86.02780762 95.83007812 85.38916016 C90.49795233 80.63918607 84.66898834 76.7207041 78.72558594 72.77880859 C77.66637939 72.07425537 76.60717285 71.36970215 75.51586914 70.64379883 C62.4864073 61.9639666 62.4864073 61.9639666 48.22558594 55.65380859 C48.22558594 54.99380859 48.22558594 54.33380859 48.22558594 53.65380859 C47.36320312 53.55068359 46.50082031 53.44755859 45.61230469 53.34130859 C41.96575951 52.60106413 39.34057882 51.35832105 36.03808594 49.65380859 C20.77691462 42.19173418 3.8861612 36.57900487 -12.95019531 34.19677734 C-16.21868989 33.73271121 -19.4317266 33.14865046 -22.66577148 32.49047852 C-70.23090861 22.91890938 -125.30749172 28.39260333 -168.77441406 50.65380859 C-170.09861544 51.302343 -171.42418363 51.9480927 -172.75097656 52.59130859 C-192.82552255 62.3714005 -210.86907857 74.0732726 -227.77441406 88.65380859 C-228.84151834 89.52954517 -229.90923509 90.40453592 -230.97753906 91.27880859 C-233.66242144 93.55870871 -235.59221318 95.90845909 -237.77441406 98.65380859 C-238.53753906 99.25193359 -239.30066406 99.85005859 -240.08691406 100.46630859 C-242.46477196 102.40177433 -244.23761793 104.26911887 -246.21191406 106.59130859 C-255.20100675 117.10795952 -255.20100675 117.10795952 -260.97363281 117.98974609 C-267.99708212 118.10000432 -273.06941588 116.97117923 -278.37988281 112.21630859 C-281.94289297 108.06445362 -282.38282449 104.03445572 -282.53613281 98.69287109 C-279.87442101 88.07332351 -269.65119161 79.97744796 -262.14941406 72.52880859 C-261.50435913 71.88518372 -260.8593042 71.24155884 -260.19470215 70.57843018 C-249.73267894 60.17371981 -239.06322755 50.87533184 -226.77441406 42.65380859 C-225.3536973 41.67224593 -223.93312179 40.69047879 -222.51269531 39.70849609 C-205.73831498 28.31826745 -187.36313841 19.63730604 -168.77441406 11.65380859 C-167.92878906 11.28384766 -167.08316406 10.91388672 -166.21191406 10.53271484 C-163.49042747 9.55140958 -160.73107085 8.88676232 -157.92041016 8.21191406 C-154.24005924 7.25477161 -150.67686693 5.96385041 -147.08691406 4.71630859 C-136.52678707 1.13879176 -126.31967904 -1.51320978 -115.13769531 -2.13525391 C-112.75690946 -2.20247466 -112.75690946 -2.20247466 -110.77441406 -3.34619141 C-76.4016299 -9.85157874 -33.58940189 -10.07340874 0 0 Z " fill="#F6F5F6" transform="translate(710.7744140625,309.34619140625)"/>
<path d="M0 0 C13.0331691 8.06405845 20.23851055 19.3737841 25.2734375 33.51953125 C28.02585841 46.71496089 26.12332749 59.64679693 18.90625 71.08984375 C12.24568489 80.28557205 5.36316055 88.03231913 -5.0390625 92.83203125 C-5.81378906 93.22519531 -6.58851563 93.61835938 -7.38671875 94.0234375 C-16.71129062 98.15968499 -28.3255237 98.45654187 -38.203125 96.06640625 C-40.5998932 95.13144404 -42.78974611 94.07651284 -45.0390625 92.83203125 C-46.58002673 92.08058906 -48.12165764 91.33051195 -49.6640625 90.58203125 C-50.7778125 90.00453125 -51.8915625 89.42703125 -53.0390625 88.83203125 C-53.42578125 89.70601562 -53.42578125 89.70601562 -53.8203125 90.59765625 C-55.13740267 93.01232155 -56.58994634 94.64943302 -58.5390625 96.58203125 C-59.1475 97.195625 -59.7559375 97.80921875 -60.3828125 98.44140625 C-62.0390625 99.83203125 -62.0390625 99.83203125 -64.0390625 99.83203125 C-64.0390625 100.49203125 -64.0390625 101.15203125 -64.0390625 101.83203125 C-65.68359375 103.453125 -65.68359375 103.453125 -67.8515625 105.26953125 C-70.86369515 107.80542457 -70.86369515 107.80542457 -73.67578125 110.5546875 C-75.0390625 111.83203125 -75.0390625 111.83203125 -77.0390625 111.83203125 C-77.0390625 112.49203125 -77.0390625 113.15203125 -77.0390625 113.83203125 C-77.6990625 113.83203125 -78.3590625 113.83203125 -79.0390625 113.83203125 C-79.0390625 114.49203125 -79.0390625 115.15203125 -79.0390625 115.83203125 C-80.40234375 117.20703125 -80.40234375 117.20703125 -82.3515625 118.83203125 C-85.80923799 121.76952547 -89.19150991 124.76927741 -92.5390625 127.83203125 C-95.73428551 130.7496004 -98.94691168 133.63485628 -102.2265625 136.45703125 C-104.8947634 138.76875186 -107.39056557 141.17628947 -109.8515625 143.70703125 C-112.80497358 146.70632056 -115.87873686 149.38838466 -119.1640625 152.01953125 C-123.69893832 155.65878487 -127.98651634 159.48432436 -132.2265625 163.45703125 C-132.82194824 164.01438965 -133.41733398 164.57174805 -134.03076172 165.14599609 C-135.17799808 166.22043259 -136.32513752 167.29497259 -137.47216797 168.36962891 C-139.55841748 170.31675177 -141.6623501 172.24168331 -143.7890625 174.14453125 C-144.38203125 174.67691406 -144.975 175.20929688 -145.5859375 175.7578125 C-147.0390625 176.83203125 -147.0390625 176.83203125 -149.0390625 176.83203125 C-149.0390625 177.49203125 -149.0390625 178.15203125 -149.0390625 178.83203125 C-156.68209485 184.54979353 -164.04742537 184.5560635 -173.29296875 184.4609375 C-174.76309891 184.46176793 -176.23322896 184.46423387 -177.70335388 184.46824646 C-180.77054094 184.47109086 -183.83699225 184.45653674 -186.90405273 184.42895508 C-190.81684296 184.39484316 -194.72832187 184.40091286 -198.64117527 184.41961765 C-201.67232516 184.43023242 -204.70317476 184.42121011 -207.7342968 184.40623283 C-209.17624963 184.40108531 -210.61823426 184.40149073 -212.06018257 184.40777779 C-220.06949123 184.42960092 -226.27822096 184.37412546 -233.0390625 179.83203125 C-235.4140625 176.83203125 -235.4140625 176.83203125 -237.0390625 173.83203125 C-237.4515625 173.17203125 -237.8640625 172.51203125 -238.2890625 171.83203125 C-239.61290974 168.30177194 -239.5891299 165.37221997 -238.31640625 161.80859375 C-235.45765109 155.58183149 -231.66360792 152.11922896 -225.27474976 149.44946289 C-220.47864571 148.12491878 -215.45881779 148.58657725 -210.52734375 148.70703125 C-208.05274938 148.72374722 -205.57813732 148.73799208 -203.10351562 148.75 C-199.22959904 148.78284019 -195.3585758 148.83186383 -191.4855957 148.92431641 C-175.48877414 150.05591051 -175.48877414 150.05591051 -161.266922 144.25186157 C-158.97672914 141.93596887 -157.00749839 139.42276908 -155.0390625 136.83203125 C-153.50819434 135.33560173 -151.94972653 133.86664665 -150.359375 132.43359375 C-148.24512996 130.43205662 -146.13342322 128.42790157 -144.0234375 126.421875 C-141.02626483 123.58625997 -138.0370394 120.78251265 -134.84375 118.16796875 C-132.06664015 115.85499982 -129.57812192 113.40196069 -127.0390625 110.83203125 C-124.68126638 108.60514475 -122.29564183 106.40843231 -119.9140625 104.20703125 C-115.21975023 99.85224651 -110.60414536 95.44749266 -106.1015625 90.89453125 C-94.77489417 79.46673195 -94.77489417 79.46673195 -89.0390625 76.83203125 C-89.0390625 76.17203125 -89.0390625 75.51203125 -89.0390625 74.83203125 C-88.3790625 74.83203125 -87.7190625 74.83203125 -87.0390625 74.83203125 C-87.0390625 74.17203125 -87.0390625 73.51203125 -87.0390625 72.83203125 C-85.4296875 71.24609375 -85.4296875 71.24609375 -83.2890625 69.45703125 C-82.56203125 68.83054687 -81.835 68.2040625 -81.0859375 67.55859375 C-79.58803304 66.29509419 -78.06927628 65.05620228 -76.5390625 63.83203125 C-74.29541132 60.84049634 -74.71435136 58.46879607 -75.0390625 54.83203125 C-75.2040625 54.26613281 -75.3690625 53.70023437 -75.5390625 53.1171875 C-78.5497377 39.35746101 -75.04583259 26.82442982 -67.6640625 15.1796875 C-62.74398072 8.07158858 -57.46418346 3.23256204 -50.0390625 -1.16796875 C-49.35972656 -1.65652344 -48.68039062 -2.14507812 -47.98046875 -2.6484375 C-34.77908965 -11.04931511 -13.01448704 -6.87526244 0 0 Z " fill="#F6F5F5" transform="translate(989.0390625,381.16796875)"/>
<path d="M0 0 C1.26657188 -0.05081726 1.26657188 -0.05081726 2.55873108 -0.10266113 C10.41164127 -0.40129042 18.26716606 -0.5808912 26.12431812 -0.72340965 C31.39285777 -0.82117485 36.65359325 -0.9579482 41.91796875 -1.19238281 C80.19424768 -2.85413175 80.19424768 -2.85413175 90.71466732 6.27879143 C94.67666021 10.07073395 97.9694322 14.32810828 101.05059814 18.84840393 C104.69058597 24.12078839 109.07646944 28.85357391 113.71948242 33.25927734 C116.75716166 36.24458281 119.44464363 39.36295489 122.09448242 42.69677734 C125.97099823 47.5407425 130.1672856 51.84486178 134.60205078 56.16308594 C137.9664514 59.47167511 140.78532269 62.87257667 143.49291992 66.72021484 C145.39703681 69.15264162 147.67370694 70.95322048 150.06323242 72.89208984 C152.64938613 75.14930295 154.78221226 77.73341157 157.00073242 80.34521484 C160.10692197 83.88574446 163.4844995 87.14971919 166.84448242 90.44677734 C167.43583984 90.23601562 168.02719727 90.02525391 168.63647461 89.80810547 C175.21930891 87.6266594 181.17817046 86.90082372 188.09448242 86.94677734 C189.1001123 86.95249756 190.10574219 86.95821777 191.1418457 86.96411133 C206.55996094 87.33203518 217.01454768 93.23464463 227.59448242 104.19677734 C235.8157154 113.63756495 239.2496627 124.95955212 239.15698242 137.32177734 C239.15134277 138.11334229 239.14570312 138.90490723 239.13989258 139.72045898 C239.01541202 145.724489 238.3270203 150.9226568 235.84448242 156.44677734 C235.46549805 157.31173828 235.08651367 158.17669922 234.69604492 159.06787109 C226.97350087 174.80311259 215.64221282 182.40374405 199.82104492 188.63818359 C190.80795225 191.08662215 181.34940831 189.95332907 172.84448242 186.44677734 C171.99756836 186.21474609 171.1506543 185.98271484 170.27807617 185.74365234 C158.0543651 182.1965157 147.92506437 171.38013143 141.84448242 160.44677734 C136.54943189 148.2320585 135.93541146 134.11649351 139.84448242 121.44677734 C140.13605227 115.51819035 138.85513044 113.04281011 134.90698242 108.63427734 C133.22941871 106.89546924 131.54143839 105.16666515 129.84448242 103.44677734 C128.14767409 101.62205577 126.46017581 99.78863356 124.78198242 97.94677734 C123.94924805 97.03412109 123.11651367 96.12146484 122.25854492 95.18115234 C119.96392439 92.5820676 117.7971571 89.92364083 115.65698242 87.19677734 C112.81870058 83.58338238 109.84090205 80.33165231 106.54370117 77.13818359 C104.17503023 74.78040309 102.02386045 72.25655257 99.84057617 69.72802734 C96.08926726 65.44081716 92.2097877 61.26889061 88.34887695 57.08056641 C86.8017669 55.40038782 85.25843817 53.71679443 83.71557617 52.03271484 C82.67553966 50.89960113 81.6351786 49.76678522 80.59448242 48.63427734 C80.09182861 48.08707031 79.5891748 47.53986328 79.07128906 46.97607422 C76.31608661 43.991765 73.50830225 41.09085225 70.59448242 38.25927734 C67.84448242 35.44677734 67.84448242 35.44677734 67.84448242 33.44677734 C66.90789291 33.45565979 65.97130341 33.46454224 65.0063324 33.47369385 C56.1641789 33.55490863 47.32210144 33.61480446 38.47965908 33.65402603 C33.93403471 33.67486847 29.38871232 33.70312463 24.84326172 33.74853516 C20.45362965 33.79211275 16.06428739 33.8159396 11.67445564 33.82628632 C10.0027517 33.83365637 8.33106296 33.84804847 6.65948296 33.86969757 C4.3112188 33.89889102 1.96414014 33.90272686 -0.38427734 33.90087891 C-1.41251114 33.92245056 -1.41251114 33.92245056 -2.46151733 33.94445801 C-7.82479326 33.8990245 -10.82941553 32.39051634 -15.15551758 29.44677734 C-16.59301758 27.19677734 -16.59301758 27.19677734 -17.15551758 25.44677734 C-17.81551758 25.44677734 -18.47551758 25.44677734 -19.15551758 25.44677734 C-21.42913702 20.89953845 -20.44854437 15.4637527 -19.09301758 10.75927734 C-14.40484296 2.74401106 -8.95266106 0.32840487 0 0 Z " fill="#F6F6F6" transform="translate(773.155517578125,660.55322265625)"/>
<path d="M0 0 C11.3283244 6.78454593 19.87274617 16.05345719 24.0078125 28.78125 C27.65160151 43.9693799 26.97779503 58.94959986 19.0390625 72.6015625 C17.11486769 75.33436837 15.10277748 77.87306659 12.90625 80.390625 C12.3390625 81.05578125 11.771875 81.7209375 11.1875 82.40625 C3.69122254 90.53900384 -6.76154926 96.26442712 -17.8515625 96.89453125 C-34.67306147 97.25601536 -46.59341049 95.53441995 -59.09399414 83.58105469 C-69.09375 73.53149754 -69.09375 73.53149754 -69.09375 69.390625 C-70.29777513 69.39477307 -70.29777513 69.39477307 -71.526124 69.39900494 C-91.06467368 69.46528195 -110.60320089 69.51491396 -130.14183903 69.54606152 C-139.59061281 69.56152492 -149.03931152 69.58260441 -158.48803711 69.61694336 C-166.72434411 69.6468618 -174.96059674 69.66620383 -183.19695657 69.67289048 C-187.55733277 69.6767986 -191.91755341 69.68597226 -196.27787971 69.70781517 C-200.3843008 69.72821895 -204.49050264 69.73445095 -208.5969696 69.72994804 C-210.10178253 69.73077151 -211.606603 69.73671403 -213.11137199 69.74824142 C-227.33998134 69.85186905 -227.33998134 69.85186905 -233.09375 66.390625 C-235.2734375 64.19921875 -235.2734375 64.19921875 -236.96875 61.828125 C-237.54367187 61.04308594 -238.11859375 60.25804687 -238.7109375 59.44921875 C-241.7507775 54.92380723 -241.9092127 50.7381785 -241.09375 45.390625 C-239.54733749 42.24257097 -237.57298534 39.85530514 -235.09375 37.390625 C-234.50072917 36.65846425 -234.50072917 36.65846425 -233.89572811 35.91151237 C-230.0824552 31.81933527 -226.91405193 30.9348974 -221.36756897 30.63113403 C-218.5976275 30.59600496 -215.8394887 30.59288284 -213.07055664 30.61767578 C-211.54243411 30.60949822 -210.01432373 30.59869191 -208.48623657 30.58546448 C-204.35223246 30.55708938 -200.21902696 30.56535988 -196.08498311 30.58033228 C-191.75940643 30.58972596 -187.43402285 30.56524909 -183.10850525 30.54440308 C-174.92403435 30.51008639 -166.73984295 30.50612186 -158.55531448 30.51312816 C-149.23480944 30.51962414 -139.91450029 30.49218293 -130.59405339 30.46192575 C-111.42725961 30.40046263 -92.26063363 30.38150508 -73.09375 30.390625 C-72.43375 28.740625 -71.77375 27.090625 -71.09375 25.390625 C-70.43375 25.390625 -69.77375 25.390625 -69.09375 25.390625 C-68.949375 24.1325 -68.805 22.874375 -68.65625 21.578125 C-66.69588734 12.65071805 -59.11688826 5.75359072 -52.09375 0.390625 C-35.28299667 -10.05890812 -17.21218675 -8.95381432 0 0 Z " fill="#F6F5F6" transform="translate(992.09375,567.609375)"/>
<path d="M0 0 C4.68041527 1.80552444 8.38286077 4.59545415 11.13574028 8.84534073 C13.19801709 13.9867395 12.56105367 19.86282571 12.53344727 25.32373047 C12.54050992 26.78945788 12.5492564 28.25517799 12.55955505 29.72088623 C12.58202273 33.69213573 12.57911524 37.66298617 12.57023358 41.63427496 C12.56511595 44.95424788 12.5724227 48.27414632 12.57970566 51.59411156 C12.59669702 59.42950673 12.59314739 67.26470712 12.57641602 75.10009766 C12.55950181 83.17207279 12.57532102 91.24350687 12.6076389 99.31542289 C12.63436925 106.25577945 12.64160134 113.19596793 12.63312382 120.13637078 C12.6282038 124.27709022 12.63035947 128.41748432 12.65091133 132.55816269 C12.66932244 136.4539414 12.66324456 140.34894479 12.63871193 144.24468231 C12.63372077 145.67004895 12.63714972 147.09547521 12.64986038 148.52079391 C12.7145965 156.40721123 12.70345783 163.04844729 7 169 C2.65825398 172.35336189 -1.07243232 173.31327393 -6.5625 173.125 C-11.32347667 172.47697818 -14.16682257 171.01126509 -17.66015625 167.765625 C-20.76048131 163.68006545 -21.25444834 159.74642892 -21.28761292 154.72001648 C-21.30047836 153.45416718 -21.31334381 152.18831787 -21.32659912 150.8841095 C-21.33068419 149.4887397 -21.3345211 148.09336915 -21.33813477 146.69799805 C-21.34903543 145.22256912 -21.36070774 143.74714573 -21.37309265 142.27172852 C-21.40355025 138.26956057 -21.42060402 134.26745003 -21.43330884 130.26518989 C-21.44140319 127.7626641 -21.45158403 125.26015466 -21.46232414 122.75763893 C-21.49502795 114.92160151 -21.51893437 107.08560399 -21.531138 99.24950761 C-21.54539295 90.21502004 -21.58927245 81.18131364 -21.65863949 72.14708489 C-21.71046298 65.15582317 -21.73531436 58.16478335 -21.73996013 51.17333251 C-21.743354 47.00108921 -21.75814397 42.82963667 -21.80124092 38.6575985 C-21.84109071 34.73133747 -21.8473559 30.80641593 -21.82834053 26.88001251 C-21.8270779 25.44331333 -21.83768204 24.00654444 -21.86135483 22.57003975 C-22.05047277 10.39416327 -22.05047277 10.39416327 -17.635849 5.2068634 C-12.0664877 -0.17284326 -7.58578512 -1.00522016 0 0 Z " fill="#F9F9F9" transform="translate(321,287)"/>
<path d="M0 0 C5.52123634 2.52810056 9.24713944 5.5509082 12 11 C12.38031673 13.95670223 12.38031673 13.95670223 12.38768005 17.29344177 C12.39758469 18.5621814 12.40748932 19.83092102 12.41769409 21.1381073 C12.41345632 22.53665258 12.40889849 23.93519693 12.40405273 25.33374023 C12.40975746 26.81241369 12.41672211 28.29108275 12.42485046 29.76974487 C12.44278604 33.7801179 12.44161277 37.79027217 12.43590808 41.80067325 C12.43281674 45.15059707 12.43890807 48.50047885 12.44494683 51.85039669 C12.45899179 59.7542226 12.45743106 67.65794042 12.44604492 75.56176758 C12.43456385 83.71150684 12.44863912 91.86091701 12.4754414 100.01061291 C12.49760389 107.01204699 12.50423454 114.01337781 12.49836498 121.01484448 C12.49499548 125.19459702 12.4974099 129.37413862 12.51461601 133.55386162 C12.53009192 137.48481082 12.52612286 141.41527285 12.50731087 145.34620285 C12.50362671 146.78692469 12.50672851 148.22768268 12.51719666 149.6683712 C12.53041787 151.63873518 12.51644397 153.60922517 12.50120544 155.57957458 C12.50099616 156.68107566 12.50078688 157.78257673 12.50057125 158.91745663 C11.6334278 164.25737034 8.14294015 168.76544161 3.89453125 172.078125 C-0.24030507 174.09012783 -4.56789105 173.77954824 -9 173 C-13.67756641 171.16321851 -17.37185418 168.42178954 -20.13280487 164.15928078 C-22.20708264 158.99441309 -21.58993462 153.08847079 -21.58105469 147.6003418 C-21.59303248 146.12637984 -21.60664525 144.65243039 -21.62176514 143.17849731 C-21.65702853 139.18450659 -21.66647341 135.19085887 -21.66902828 131.19672751 C-21.67187599 128.69834904 -21.68042395 126.20005714 -21.69101715 123.70170021 C-21.7279998 114.97694001 -21.74436078 106.25242388 -21.74121094 97.52758789 C-21.73880889 89.40880924 -21.78099979 81.29109464 -21.84418559 73.17258519 C-21.89657949 66.19058974 -21.91794273 59.20894108 -21.9153893 52.22675067 C-21.91437191 48.06170733 -21.92562987 43.8976099 -21.9681015 39.73276329 C-22.00698563 35.81285943 -22.00704123 31.89479771 -21.97803497 27.97482681 C-21.97387062 26.54178598 -21.98319165 25.10862807 -22.00747681 23.67578697 C-22.12186232 16.45549153 -21.99265482 11.30765202 -17.12677002 5.70075989 C-11.65792495 0.39040427 -7.56829952 -1.25592272 0 0 Z " fill="#F6F6F6" transform="translate(259,287)"/>
<path d="M0 0 C4.99331942 2.25132321 9.4566795 5.30588874 11.83984375 10.3515625 C12.7043721 16.08174211 12.48926653 21.33113608 10.71484375 26.8515625 C8.004342 30.46556484 4.92504048 33.30896413 0.83984375 35.3515625 C-5.04576659 35.94695592 -10.61221437 36.14723746 -15.66015625 32.76171875 C-20.31414783 28.38648188 -22.99510387 22.86861125 -23.41015625 16.5390625 C-23.31143537 11.62994259 -22.03452544 8.2042376 -18.47265625 4.68359375 C-12.65458306 -0.41934128 -7.76029919 -2.32949307 0 0 Z " fill="#050505" transform="translate(967.16015625,781.6484375)"/>
<path d="M0 0 C1.28648437 -0.01933594 2.57296875 -0.03867187 3.8984375 -0.05859375 C9.2882946 0.65892391 12.30648239 3.01207556 15.9375 6.9375 C19.15067982 11.69776639 19.12720835 16.84687876 18.625 22.4375 C17.19471044 27.40144611 15.02408845 31.12553451 10.98046875 34.32421875 C5.77999832 36.78215253 0.17669811 36.40414861 -5.375 35.4375 C-10.36483689 33.11898993 -13.52586665 28.67009831 -15.7109375 23.7109375 C-17.19980271 18.61376367 -17.64241172 13.19775241 -15.38671875 8.28515625 C-14.15016587 6.4743528 -12.94975372 4.96252466 -11.375 3.4375 C-10.81039062 2.88964844 -10.24578125 2.34179688 -9.6640625 1.77734375 C-6.40201451 -0.13201199 -3.7544754 0.00374698 0 0 Z " fill="#070707" transform="translate(962.375,408.5625)"/>
<path d="M0 0 C4.46766644 3.05108928 6.84892489 5.59443852 8.5625 10.75 C8.79296875 13.50390625 8.79296875 13.50390625 8.75 16.3125 C8.74355469 17.24191406 8.73710938 18.17132812 8.73046875 19.12890625 C8.58003445 21.47638102 8.22410428 23.50054544 7.5625 25.75 C6.9025 25.75 6.2425 25.75 5.5625 25.75 C5.30339844 26.36359375 5.04429687 26.9771875 4.77734375 27.609375 C2.67946344 31.30596152 -0.49977992 32.47151945 -4.4375 33.75 C-9.52221882 34.76694376 -13.5631995 34.90405743 -18.0703125 32.12890625 C-23.38597402 27.60803014 -26.16900518 24.0256368 -26.75 16.9375 C-26.58651938 11.84075127 -25.50156786 7.02836999 -22.0078125 3.171875 C-15.72427086 -2.26760881 -7.68078611 -2.79301313 0 0 Z " fill="#070707" transform="translate(976.4375,596.25)"/>
<path d="M0 0 C0 3 0 3 -1.8359375 5.17651367 C-2.67382812 5.99869385 -3.51171875 6.82087402 -4.375 7.66796875 C-5.27734375 8.56064453 -6.1796875 9.45332031 -7.109375 10.37304688 C-8.0727573 11.31136157 -9.03630108 12.2495105 -10 13.1875 C-10.96422346 14.13667769 -11.92777392 15.08653956 -12.890625 16.03710938 C-15.25386746 18.36490319 -17.62381482 20.68543133 -20 23 C-20.33 22.34 -20.66 21.68 -21 21 C-14.53207552 13.40018873 -7.80356101 6.24284881 0 0 Z " fill="#CCCCCC" transform="translate(327,522)"/>
<path d="M0 0 C0 3 0 3 -1.8359375 5.17651367 C-2.67382812 5.99869385 -3.51171875 6.82087402 -4.375 7.66796875 C-5.27734375 8.56064453 -6.1796875 9.45332031 -7.109375 10.37304688 C-8.0727573 11.31136157 -9.03630108 12.2495105 -10 13.1875 C-10.96422346 14.13667769 -11.92777392 15.08653956 -12.890625 16.03710938 C-15.25386746 18.36490319 -17.62381482 20.68543133 -20 23 C-20.66 22.67 -21.32 22.34 -22 22 C-14.66666667 14.66666667 -7.33333333 7.33333333 0 0 Z " fill="#272727" transform="translate(196,172)"/>
<path d="M0 0 C0 0.33 0 0.66 0 1 C-1.20398438 1.13277344 -2.40796875 1.26554687 -3.6484375 1.40234375 C-5.22398085 1.5805302 -6.79950047 1.7589265 -8.375 1.9375 C-9.1690625 2.02451172 -9.963125 2.11152344 -10.78125 2.20117188 C-15.02255001 2.6038935 -15.02255001 2.6038935 -19 4 C-21.6723621 4.13415472 -24.32250488 4.04318541 -27 4 C-27 3.67 -27 3.34 -27 3 C-18.28837003 0.03012615 -9.13707841 -0.17571305 0 0 Z " fill="#706E6E" transform="translate(617,304)"/>
<path d="M0 0 C0 3 0 3 -2.1875 5.48046875 C-3.115625 6.37378906 -4.04375 7.26710938 -5 8.1875 C-5.928125 9.08855469 -6.85625 9.98960937 -7.8125 10.91796875 C-8.534375 11.60503906 -9.25625 12.29210937 -10 13 C-10.66 12.67 -11.32 12.34 -12 12 C-10.75479583 10.55834372 -9.50362077 9.12184348 -8.25 7.6875 C-7.55390625 6.88699219 -6.8578125 6.08648437 -6.140625 5.26171875 C-4.20854665 3.22034399 -2.30056874 1.60107149 0 0 Z " fill="#D1D0D0" transform="translate(498,457)"/>
<path d="M0 0 C0.66 0.33 1.32 0.66 2 1 C-1.96 4.96 -5.92 8.92 -10 13 C-10.66 12.67 -11.32 12.34 -12 12 C-8.32167983 7.47384007 -4.58913637 3.60575001 0 0 Z " fill="#CDCCCC" transform="translate(940,568)"/>
<path d="M0 0 C0.66 0.33 1.32 0.66 2 1 C-1.63 4.63 -5.26 8.26 -9 12 C-9.66 11.67 -10.32 11.34 -11 11 C-9.73347137 9.53792657 -8.46161082 8.08047074 -7.1875 6.625 C-6.47980469 5.81289063 -5.77210938 5.00078125 -5.04296875 4.1640625 C-3 2 -3 2 0 0 Z " fill="#CCCCCC" transform="translate(933,384)"/>
<path d="M0 0 C0.66 0.33 1.32 0.66 2 1 C1.0479279 2.00596297 0.08812654 3.00461563 -0.875 4 C-1.40867187 4.556875 -1.94234375 5.11375 -2.4921875 5.6875 C-4 7 -4 7 -6 7 C-4.60667426 3.63279613 -3.0210714 2.0140476 0 0 Z " fill="#C3C3C3" transform="translate(759,533)"/>
<path d="M0 0 C0.66 0.33 1.32 0.66 2 1 C1.0479279 2.00596297 0.08812654 3.00461563 -0.875 4 C-1.40867187 4.556875 -1.94234375 5.11375 -2.4921875 5.6875 C-4 7 -4 7 -6 7 C-4.60667426 3.63279613 -3.0210714 2.0140476 0 0 Z " fill="#3E3E3D" transform="translate(955,409)"/>
</svg>
